<svg xmlns="http://www.w3.org/2000/svg" preserveAspectRatio="xMidYMid meet" data-bbox="50 50 400 400" viewBox="189.99899291992188 136.20706176757812 120.00100708007812 227.5853271484375" data-type="color" role="presentation" aria-hidden="true">
  <g>
    <path d="M237.9 138.587c-3.868 9.57-10.909 22.264-16.463 29.653-6.744 8.926-17.851 19.19-27.124 24.992l-4.314 2.727v16.116h29.256v40.264c0 51.323.496 61.637 3.719 75.026 4.91 20.578 17.554 32.33 38.43 35.702 6.05.942 20.331.992 27.124 0 6.397-.892 14.083-2.826 17.951-4.512l3.025-1.339v-15.57c0-8.579-.149-15.521-.347-15.422-.248.099-2.529 1.19-5.108 2.479-2.578 1.29-6.397 2.827-8.43 3.372-4.76 1.339-13.686 1.885-17.405.992-8.529-1.983-13.785-7.636-16.314-17.504-2.033-8.083-2.132-10.066-2.33-57.521l-.199-45.967H310v-32.232h-50.579v-43.636h-20.579l-.942 2.38Z" fill="#FFFFFF" data-color="2"/>
  </g>
</svg>